<?xml version="1.0" encoding="utf-8"?><svg id="Illustrator_64" data-name="Illustrator 64" xmlns="http://www.w3.org/2000/svg" width="63.999" height="62" viewBox="0 0 63.999 62">
  <path id="Path_99510" data-name="Path 99510" d="M11.4,0H52.8A11.171,11.171,0,0,1,64,11.291V50.709A11.34,11.34,0,0,1,52.6,62H11.4A11.341,11.341,0,0,1,0,50.709V11.291A11.216,11.216,0,0,1,11.4,0Z" fill="#300"/>
  <path id="Path_99511" data-name="Path 99511" d="M24.4,29.4h-10l-2,6.2c0,.2-.2.4-.6.4H7a.43.43,0,0,1-.4-.4l8.6-24.8c.2-.2.2-.4.2-.8a5.537,5.537,0,0,0,.2-1.8l.2-.2h6.8c.2,0,.4,0,.4.2l9.8,27.4c0,.2,0,.4-.2.4H27a.43.43,0,0,1-.4-.4ZM16,24h6.8c-.2-.6-.4-1.2-.6-2a9.749,9.749,0,0,0-.8-2.2c-.2-.8-.6-1.6-.8-2.4a11.275,11.275,0,0,0-.8-2.4,10.778,10.778,0,0,1-.6-2h0a16.894,16.894,0,0,1-1,3.4c-.4,1.2-.8,2.6-1.2,4A24.181,24.181,0,0,1,16,24Z" transform="translate(6.6 7.723)" fill="#ff9a00"/>
  <path id="Path_99512" data-name="Path 99512" d="M24.2,13.7a3.69,3.69,0,0,1-2.4-1,3.492,3.492,0,0,1-.8-2.4,3.69,3.69,0,0,1,1-2.4,3.38,3.38,0,0,1,4.8,0,2.748,2.748,0,0,1,.8,2.4,2.692,2.692,0,0,1-1,2.4A3.312,3.312,0,0,1,24.2,13.7Zm-2.8,23V16.3a.43.43,0,0,1,.4-.4H27a.43.43,0,0,1,.4.4V36.9a.43.43,0,0,1-.4.4H21.8C21.4,37.3,21.4,37.1,21.4,36.7Z" transform="translate(20.999 6.643)" fill="#ff9a00"/>
</svg>
