<svg xmlns="http://www.w3.org/2000/svg" fill="none" viewBox="0 0 40 40" style="translate:none;rotate:none;scale:none;transform:translate(0,0)"><path fill="url(#a)" d="M30.625 0H9.375A9.375 9.375 0 0 0 0 9.375v21.25A9.375 9.375 0 0 0 9.375 40h21.25A9.375 9.375 0 0 0 40 30.625V9.375A9.375 9.375 0 0 0 30.625 0"/><path fill="#fff" d="m1.795 20.169 7.86 3.185v2.229L.35 21.272v-1.308zm7.86-2.617-7.849 3.23-1.456.16v-1.32l9.305-4.3zm28.06 3.072-8.088-3.151V15.3l9.714 4.3v1.33zm-8.088 2.775 8.11-3.22 1.604-.238v1.32l-9.714 4.31z"/><path fill="#B956A6" fill-rule="evenodd" d="M27.512 9.547c-.045.713-.367 1.458-.277 2.152.561.992 1.797 1.15 2.816 1.219.707.126.698-.341.65-.867l.009-2.52c-1.066.005-2.133-.01-3.198.016m-8.407 1.995c-1.735.295-3.495 1.124-4.939 2.123-1.162.904.998 1.78 1.782 1.927 1.576.02 2.975-1.044 4.01-2.148.338-.464.76-1.174.336-1.712-.325-.281-.796-.213-1.189-.19m3.694 2.524a10.65 10.65 0 0 0-3.987 1.68c-.88.276-1.606 1.243-.515 1.727 1.146.914 2.474.69 3.53.073.966-.574 2.01-1.283 2.458-2.365.422-1.184-.668-1.228-1.486-1.115m4.048 4.591c-.266 1.11-1.384 1.615-1.978 2.495-.487.641-.261 1.397.292 1.902.27.559.742.871 1.249.386 1.305-.887 1.666-2.616 1.612-4.113.096-.618-.613-.06-1.175-.67m-4.966 2.085c-1.733.297-3.466 1.141-4.91 2.138-1.122.903.99 1.747 1.78 1.88 1.605.003 3.038-1.032 4.053-2.207.353-.467.781-1.373.082-1.744-.313-.133-.676-.094-1.005-.067" clip-rule="evenodd"/><path fill="#FCCC44" fill-rule="evenodd" d="M14.167 13.664c-1.333.534-2.619 1.181-3.888 1.86-.236.877-.047 1.963-.108 2.925-.005 3.956-.003 7.911-.003 11.867h2.94c.594-.559 1.338-.968 1.983-1.476 2.483-1.78 4.966-3.569 7.446-5.345.183.082.066-1.073-.335-.27-.948.892-2.207 1.626-3.54 1.554-.756-.248-1.975-.67-1.983-1.597.532-.627-.982.328-1.396.465-1.348.647-2.663 1.369-4.013 2.004.324-.349.931-.674 1.362-1.02 3.074-2.206 6.147-4.42 9.228-6.626.593-.416 1.165-.87 1.776-1.259.056.216.16-1.03-.294-.263-.926.918-2.176 1.602-3.493 1.611-.741-.225-2.32-.763-1.968-1.72.171-.336-1.592.716-.813.123.829-.606 1.665-1.201 2.5-1.8.422-.033.333-1.6-.24-.589-.964.846-2.23 1.62-3.556 1.437-.746-.214-1.64-.63-1.91-1.41-.09-.186.501-.478.305-.47m5.521.968c.134-.077-.073.212 0 0" clip-rule="evenodd"/><path fill="#62777F" fill-rule="evenodd" d="M28.11 12.617c-.417 1.987-.872 4.067-1.263 6.04 1.124 1.417 1.233-.894 1.43-1.548.317-1.366.693-2.397.733-3.81.084-.483-.483-.776-.9-.682m1.288 1.558c.052.038-.035.204 0 0m-1.31 4.456c.053.116.053-.117 0 0" clip-rule="evenodd"/><path fill="#4E5E67" fill-rule="evenodd" d="M28.846 12.842c.351 1.97-.81 4.361-1.19 6.218.862-.635 1.529-3.514 1.699-4.642.044-.128.098-.453.11-.465.054-.273.559-.737.587-1.035.294-.207-1.446-.24-1.206-.076m-.715 5.789c-.054.116-.054-.117 0 0" clip-rule="evenodd"/><path fill="#DC9624" fill-rule="evenodd" d="M14.196 13.697c-.486.487-.304.368.058-.037zm5.26.241c-.564.847-2.595 1.555-2.851 1.61 1.222-.23 2.36-.99 3.162-1.88-.127.057-.203.19-.312.27m-5.594.275c.303.73 1.407 1.215 1.944 1.328-.733-.236-1.595-.654-1.944-1.328m5.783.422c-.154.181-.7.452-.988.718-.617.455-1.255.878-1.866 1.345.389-.017 1.528-.868.944-.005.495.852 1.572 1.444 2.554 1.39 1.296-.204 2.492-.92 3.352-1.918-1.043 1.033-2.423 2.005-3.95 1.87-.739-.17-2.758-1.213-1.407-1.944.476-.392 1.297-.597 1.39-1.285-.02-.086.14-.17-.03-.17m-3.697.957c.491.064.491-.064 0 0m7.657 1.176c-1.95 1.358-3.872 2.77-5.805 4.153-2.19 1.567-4.372 3.141-6.562 4.708.824-.278 1.649-.82 2.467-1.195 1.126-.596 2.314-1.066 3.368-1.79 2.084-1.227 4.288-2.396 5.891-4.273.35-.41.7-1.07.716-1.515-.05.014-.012-.178-.075-.088M16.97 22.88c-.35.396-.493.68-.13.176-.006.058.296-.313.13-.176m5.337.19c-.924.974-2.29 1.677-3.573 1.724 1.482.01 2.82-.87 3.824-1.907-.066-.08-.2.185-.251.183m.282.306c-3.104 2.26-6.316 4.604-9.43 6.856.49.154 1.558.226 2.046-.402 1.037-.716 2.204-1.243 3.245-1.968 1.507-.978 3.121-2.047 3.977-3.691.041-.22.344-.617.162-.795m-5.908.143c.144.608 1.945 1.306 1.75 1.173-.664-.233-1.323-.596-1.75-1.173" clip-rule="evenodd"/><defs><linearGradient id="a" x1="0" x2="40" y1="40" y2="0" gradientUnits="userSpaceOnUse"><stop stop-color="#DB7093"/><stop offset="1" stop-color="#F3B661"/></linearGradient></defs></svg>