<svg xmlns="http://www.w3.org/2000/svg" fill="none" viewBox="0 0 40 40" style="translate:none;rotate:none;scale:none;transform:translate(0,0)"><path fill="#E44D26" fill-rule="evenodd" d="M5.554 36.002 2.344 0h35.27L34.4 35.996 19.957 40z" clip-rule="evenodd"/><path fill="#F16529" fill-rule="evenodd" d="m19.979 36.94 11.67-3.236 2.747-30.76H19.979z" clip-rule="evenodd"/><path fill="#EBEBEB" d="M14.136 16.296h5.843v4.416h-9.881L8.907 7.359h11.072v4.416h-6.246zm5.824 11.473.019-.005v4.594l-.02.005-9.045-2.51-.619-6.934h4.433l.314 3.522z"/><path fill="#fff" d="M19.963 7.36h11.061l-.395 4.415H19.963zm0 13.352v-4.416h10.264l-.108 1.186-1.104 12.37-9.052 2.51v-4.595l4.925-1.329.512-5.726z"/></svg>